<?xml version="1.0" encoding="utf-8"?>
<svg width="32" height="32" viewBox="0 0 32 32" fill="none" xmlns="http://www.w3.org/2000/svg">
  <rect x="0.5" y="0.5" width="31" height="31" rx="6.5" fill="white" stroke="#F8F8F8"/>
  <path d="M 21.149 11.356 L 21.148 11.355 C 20.81 11.026 20.41 10.764 19.971 10.583 L 19.97 10.583 C 19.514 10.395 19.025 10.299 18.531 10.3 L 18.53 10.3 C 17.835 10.3 17.158 10.489 16.572 10.844 C 16.431 10.929 16.299 11.022 16.173 11.123 L 15.734 11.476 L 15.295 11.123 C 15.17 11.022 15.037 10.929 14.897 10.844 C 14.31 10.489 13.634 10.3 12.939 10.3 C 12.437 10.3 11.955 10.395 11.499 10.583 L 11.498 10.583 C 11.057 10.764 10.661 11.024 10.32 11.356 L 10.319 11.357 C 9.981 11.683 9.712 12.073 9.526 12.502 M 21.149 11.356 C 21.487 11.684 21.756 12.073 21.943 12.502 C 22.137 12.949 22.235 13.42 22.233 13.906 L 22.233 13.908 C 22.233 14.363 22.14 14.851 21.942 15.365 L 21.941 15.367 M 12.38 19.113 C 13.129 19.8 13.877 20.382 14.448 20.799 C 14.732 21.007 14.971 21.172 15.142 21.287 C 15.227 21.345 15.295 21.39 15.343 21.421 C 15.386 21.449 15.409 21.464 15.414 21.467 C 15.415 21.468 15.416 21.468 15.416 21.468 L 15.427 21.475 L 15.733 21.67 L 16.04 21.475 C 16.091 21.442 17.582 20.49 19.087 19.113 M 12.38 19.113 C 11.475 18.285 10.763 17.482 10.255 16.73 M 12.38 19.113 L 10.255 16.73 M 21.941 15.367 C 21.777 15.795 21.533 16.254 21.211 16.73 M 21.941 15.367 L 21.211 16.73 M 10.255 16.73 C 9.935 16.255 9.691 15.796 9.525 15.365 L 10.255 16.73 Z M 21.211 16.73 C 20.703 17.482 19.991 18.285 19.087 19.113 L 21.211 16.73 Z M 9.525 15.365 C 9.327 14.851 9.263 14.362 9.263 13.908 C 9.263 13.421 9.332 12.948 9.526 12.502" stroke="#ECECEC" stroke-width="1.4"/>
</svg>